<?xml version="1.0" encoding="UTF-8"?>
<svg id="Layer_1" data-name="Layer 1" xmlns="http://www.w3.org/2000/svg" viewBox="0 0 313.97 193.44">
  <defs>
    <style>
      .cls-1 {
        fill: #fff;
      }

      .cls-2 {
        fill: #1e5794;
      }

      .cls-3 {
        fill: #4eade0;
      }
    </style>
  </defs>
  <path class="cls-3" d="m91.34,33.39c27.26,0,54.51,0,81.77,0,4.42,0,7.63,2.27,9.31,6.24.4.94.5,1.88.51,2.86,0,3.4.09,6.8-.03,10.2-.06,1.79-.6,3.46-1.56,5.11-1.19,2.04-3.1,2.87-4.93,3.84-.88.46-2.14.24-3.23.24-18.74.01-37.49,0-56.23.01-1.88,0-1.67-.21-1.67,1.66,0,32.79,0,65.59,0,98.38q0,1.61,1.6,1.61c12.07,0,24.14-.01,36.21.02,1.07,0,1.44-.24,1.42-1.38-.07-3.76-.06-7.52,0-11.28.01-.94-.25-1.22-1.21-1.22-6.51.04-13.03.05-19.54,0-5-.04-8.96-3.9-9.05-8.66-.08-3.88,0-7.76,0-11.64,0-1.89.97-3.39,2.04-4.79,1.22-1.6,2.95-2.58,4.82-3.25.64-.23,1.42-.13,2.13-.13,13.51,0,27.02-.08,40.52.04,4.65.04,8.63,3.9,8.67,8.66.13,17.76.07,35.51.04,53.27,0,4.59-4.4,8.81-9.11,8.81-13.19.02-26.38,0-39.56,0-12.47,0-24.94-.16-37.4.07-5.8.11-10.15-4.49-10.13-10.2.13-39.43.08-78.86.09-118.29,0-1.94.24-1.7-1.74-1.7-4.96-.01-9.91.04-14.87-.03-1.18-.02-1.44.32-1.43,1.46.03,40.03,0,80.06.08,120.09,0,3.54-1.42,6.23-3.91,8.32-1.34,1.13-3.21,1.72-5.11,1.72-3.52,0-7.03,0-10.55,0-1.28,0-2.68-.06-3.7-.66-1.61-.95-3.41-1.92-4.03-3.93-.29-.93-1.01-1.59-1.18-2.64-.14-.85,0-1.63,0-2.42-.03-40.11-.02-80.22-.02-120.33q0-1.59-1.64-1.59c-9.51,0-19.02-.07-28.53.03-5.08.05-8.32-2.58-9.92-7.05-.34-.95-.17-1.86-.18-2.78-.04-3.32-.08-6.64-.02-9.96.03-1.43.66-2.73,1.2-4.05.75-1.81,2.19-2.93,3.77-3.81,1.28-.72,2.82-.87,4.32-.87,3.08,0,6.15,0,9.23,0,24.26,0,48.52,0,72.77,0Z"/>
  <path class="cls-2" d="m91.57,28.39c-27.41,0-54.83-.03-82.24.03-4.25,0-7.8-2.89-8.91-6.65-.15-.51-.18-1-.2-1.5-.21-3.99-.25-8-.01-11.98C.46,3.89,3.97.46,8.43.05,8.95,0,9.47,0,9.99,0,64.29,0,118.6,0,172.91,0c4.15,0,7.32,1.68,9.16,5.55.62,1.31.79,2.73.83,4.13.08,3.08.15,6.16,0,9.24-.24,4.83-2.52,7.87-7.42,9.39-.73.23-1.59.08-2.39.08-27.17,0-54.35,0-81.52,0Z"/>
  <path class="cls-2" d="m217.31,161.31c1.36-3.2,3.03-6.26,4.59-9.37,3.86-7.72,7.7-15.45,11.67-23.12,1.44-2.77,2.85-5.56,4.25-8.35.27-.53.55-.74,1.15-.74,8.11.02,16.22.03,24.33-.01,1,0,.95.48.95,1.17-.01,8.56-.01,17.11,0,25.67,0,1.72-.2,1.49,1.56,1.5,1.56.01,3.12.05,4.67-.02.85-.04,1.06.31.91,1.03-.84,3.89-1.6,7.8-2.14,11.74-.08.59-.37.71-.88.7-.96-.02-1.92.06-2.88-.02-.98-.09-1.27.21-1.27,1.23.04,9.28,0,18.55.05,27.83,0,1.08-.24,1.41-1.37,1.39-3.87-.07-7.75-.06-11.63,0-.93.01-1.21-.22-1.2-1.19.04-9.32,0-18.63.05-27.95,0-1.03-.22-1.32-1.3-1.32-10.47.04-20.94.01-31.4,0,.01-.09-.03-.15-.12-.16Zm43.92-2.66c.07-.04.09-.09.07-.16,1.35-.02,2.71-.08,4.06-.06.78.01,1.17-.09,1.29-1.06.24-2.08.73-4.12,1.11-6.18-.02-.12-.07-.18-.19-.1-2.09-.01-4.17-.02-6.26-.03l-.05-.05c-.01-.44-.04-.88-.04-1.32,0-8.55-.02-17.1.02-25.65,0-.97-.21-1.33-1.24-1.29-2.19.08-4.39.02-6.59.02-.12-.08-.17-.02-.19.1-.01,8.7-.03,17.41-.05,26.11,0,.68-.04,1.35-.07,2.03-.07-.02-.13,0-.16.07-5.49,0-10.99,0-16.48,0-.35,0-.7-.07-1.05-.11h.02c0-.07-.02-.16.01-.22,2.37-5.23,4.75-10.46,7.13-15.69,1.84-4.06,3.69-8.12,5.53-12.18-.02-.12-.07-.18-.19-.1-2.56,0-5.12,0-7.68,0-.12-.08-.17-.02-.19.1-.17.96-.85,1.66-1.27,2.49-2.53,5.11-5.01,10.26-7.68,15.3-3.1,5.85-5.88,11.85-9.01,17.76,10.06,0,20,.01,29.95-.02.96,0,1.17.26,1.16,1.19-.05,5-.02,9.99-.02,14.99,0,4.4.03,8.8-.02,13.19-.01.92.26,1.14,1.14,1.11,1.76-.07,3.52,0,5.27-.03.53-.01,1.12.24,1.59-.23.03-.01.08-.02.08-.03,0-.05,0-.11-.01-.16,0-9.92,0-19.85,0-29.77Zm-11.4-32.09c-3.29,7.23-6.51,14.32-9.77,21.5,3.06,0,5.97-.04,8.87.02.96.02,1.19-.27,1.18-1.2-.04-6.36-.02-12.72-.03-19.08,0-.34.11-.7-.26-1.25Z"/>
  <path class="cls-2" d="m273.52,119.74c2.04,0,4.08.05,6.11-.02.79-.03,1.11.25,1.34.94,1.91,5.8,3.85,11.6,5.78,17.4,3.77,11.3,7.55,22.6,11.31,33.91.31.94.67,1.41,1.81,1.11,1.86-.48,3.79-.58,5.7-.75.57-.05.87.16,1.21.67,2.07,3.12,4.22,6.18,6.34,9.27,1.24,1.81,1.24,1.87-.78,2.44-2.44.7-4.7,1.66-6.46,3.6-.75.83-1.29,1.77-1.75,2.76-.26.57-.56.84-1.24.83-3.88-.03-7.75-.05-11.63,0-.8.01-.96-.4-1.16-.99-2.37-7.03-4.75-14.06-7.13-21.09-2.52-7.47-5.05-14.93-7.56-22.4-2.03-6.03-4.05-12.06-6.08-18.09-.97-2.87-1.92-5.75-2.98-8.6-.32-.87-.12-1.02.69-1.01,2.16.03,4.32,0,6.47,0Zm-2.88,3.02c-.13-.07-.16,0-.15.11,1.96,6.7,4.54,13.19,6.61,19.85,1.77,5.7,3.87,11.29,5.69,16.98,1.73,5.43,3.55,10.86,5.49,16.23,1.43,3.95,2.68,7.95,3.97,11.95.24.75.57,1.02,1.39,1,2.44-.07,4.87-.04,7.31-.01.53,0,.88-.13,1.16-.58,1.61-2.56,3.79-4.47,6.61-5.61.67-.27.59-.5.21-1.02-.91-1.26-1.69-2.62-2.56-3.91-.9-1.34-1.68-2.74-3.82-2.1-1.59.48-3.33.5-4.82,1.29-.83.44-1.13.25-1.39-.53-.87-2.62-1.77-5.22-2.64-7.84-1.93-5.81-3.84-11.62-5.77-17.43-1.23-3.7-2.45-7.4-3.7-11.08-1.84-5.42-3.74-10.82-5.52-16.25-.27-.82-.57-1.05-1.37-1.03-2.24.04-4.47,0-6.71-.01Z"/>
  <path class="cls-2" d="m194.53,191.9c4.03-17.73,8.04-35.38,12.06-53.09-1.07-.28-2.08.22-3.12.23-1.21,0-2.42.23-3.61.43-1.06.18-1.27-.46-1.34-1.26-.29-3.32-.68-6.63-1.21-9.93-.09-.58.19-.89.67-1.05,1.07-.34,2.17-.6,3.23-.98,3.29-1.18,6.37-2.75,8.9-5.24.86-.85,1.79-1.34,3.11-1.31,3.67.1,7.35.05,11.03.02.84,0,.97.21.78,1.03-1.83,7.84-3.61,15.69-5.4,23.55-1.11,4.89-2.22,9.79-3.3,14.69-1.55,6.99-3.03,14-4.65,20.97-.85,3.62-1.6,7.26-2.38,10.89-.16.74-.43,1.09-1.33,1.07-4.47-.07-8.94-.03-13.43-.03Zm26.84-68.56c.25-.24.28-.43-.1-.56-2.79,0-5.58-.01-8.38-.02-.1-.09-.16-.04-.2.07-.99.83-1.95,1.7-2.99,2.47-2.49,1.86-5.25,3.21-8.23,4.07-.65.19-.94.51-.8,1.17.27,1.23.43,2.47.48,3.73.07,1.72.36,2.06,1.83,1.79.77-.14,1.55-.2,2.32-.33,1.63-.28,3.15-.84,4.68-1.41.66-.25.83-.18.64.6-.88,3.67-1.7,7.35-2.52,11.04-1.7,7.61-3.37,15.24-5.1,22.85-1.45,6.4-2.95,12.8-4.44,19.19-.14.6-.04.88.66.87,2.2-.03,4.39-.03,6.59,0,.54,0,.78-.18.89-.7.63-2.91,1.27-5.82,1.92-8.73.85-3.82,1.72-7.64,2.58-11.46.97-4.27,1.94-8.53,2.92-12.8,1.08-4.71,2.2-9.42,3.27-14.13,1.34-5.9,2.65-11.8,3.97-17.7Z"/>
  <path class="cls-3" d="m217.31,161.31c.09.01.13.07.12.16-.15.03-.2-.01-.12-.16Z"/>
  <path class="cls-1" d="m240.23,122.76c2.56,0,5.12,0,7.68,0,.04.07.1.1.19.1-1.84,4.06-3.68,8.12-5.53,12.18-2.38,5.23-4.75,10.46-7.13,15.69-.03.07-.01.16-.01.24-.03.02-.07.04-.09.07,0,0,0,.04.02.07.02-.05.04-.1.06-.15.35.04.7.11,1.05.11,5.49,0,10.99,0,16.48,0,.11.1.16.06.16-.07.02-.68.06-1.35.07-2.03.02-8.7.03-17.41.05-26.11.09,0,.15-.03.19-.1,2.2,0,4.39.06,6.59-.02,1.03-.04,1.25.33,1.24,1.29-.03,8.55-.02,17.1-.02,25.65,0,.44.02.88.04,1.32-.02.04-.04.07-.06.11.04-.02.07-.04.11-.06,2.09.01,4.17.02,6.26.03.04.07.1.1.19.1-.38,2.06-.87,4.11-1.11,6.18-.11.97-.51,1.07-1.29,1.06-1.35-.02-2.71.03-4.06.06-.03,0-.06,0-.09,0,0,.05.01.1.02.16,0,9.92,0,19.85,0,29.77-.08.04-.1.11-.07.2-.47.47-1.06.22-1.59.23-1.76.04-3.52-.04-5.27.03-.88.03-1.15-.19-1.14-1.11.05-4.4.02-8.8.02-13.19,0-5-.02-10,.02-14.99,0-.92-.21-1.19-1.16-1.19-9.95.04-19.9.02-29.95.02,3.13-5.91,5.91-11.91,9.01-17.76,2.67-5.04,5.15-10.18,7.68-15.3.41-.84,1.09-1.54,1.27-2.49.09,0,.15-.03.19-.1Z"/>
  <path class="cls-3" d="m253.42,122.76c-.04.07-.1.11-.19.1.02-.12.07-.18.19-.1Z"/>
  <path class="cls-3" d="m248.1,122.86c-.09,0-.15-.03-.19-.1.12-.08.17-.02.19.1Z"/>
  <path class="cls-3" d="m253.11,151c0,.13-.06.17-.16.07.04-.07.09-.09.16-.07Z"/>
  <path class="cls-3" d="m240.23,122.76c-.04.07-.1.11-.19.1.02-.12.07-.18.19-.1Z"/>
  <path class="cls-3" d="m267.77,151.18c-.09,0-.15-.03-.19-.1.12-.08.17-.02.19.1Z"/>
  <path class="cls-3" d="m261.24,158.64c0-.05-.01-.1-.02-.16.03,0,.06,0,.09,0,.02.07,0,.13-.07.16Z"/>
  <path class="cls-3" d="m261.16,188.61c-.03-.09,0-.15.07-.2,0,.05.02.11.01.16,0,.01-.05.02-.08.03Z"/>
  <path class="cls-1" d="m270.64,122.75c2.24.01,4.47.06,6.71.01.81-.01,1.1.21,1.37,1.03,1.78,5.44,3.68,10.84,5.52,16.25,1.25,3.69,2.47,7.39,3.7,11.08,1.93,5.81,3.84,11.62,5.77,17.43.87,2.62,1.77,5.22,2.64,7.84.26.78.57.96,1.39.53,1.49-.79,3.23-.81,4.82-1.29,2.14-.64,2.92.76,3.82,2.1.87,1.29,1.65,2.64,2.56,3.91.38.53.47.75-.21,1.02-2.82,1.14-5,3.04-6.61,5.61-.28.45-.63.59-1.16.58-2.44-.03-4.88-.06-7.31.01-.82.02-1.15-.25-1.39-1-1.29-3.99-2.55-8-3.97-11.95-1.94-5.37-3.76-10.79-5.49-16.23-1.81-5.69-3.91-11.28-5.69-16.98-2.07-6.66-4.65-13.15-6.61-19.85.08,0,.13-.04.15-.11Z"/>
  <path class="cls-3" d="m270.64,122.75c-.02.08-.07.11-.15.11-.01-.12.02-.18.15-.11Z"/>
  <path class="cls-1" d="m212.89,122.76c2.79,0,5.58.01,8.37.02.03.19.07.37.1.56-1.32,5.9-2.63,11.8-3.97,17.7-1.07,4.72-2.18,9.42-3.27,14.13-.98,4.26-1.95,8.53-2.92,12.8-.87,3.82-1.73,7.64-2.58,11.46-.65,2.91-1.29,5.82-1.92,8.73-.11.52-.35.71-.89.7-2.2-.03-4.39-.03-6.59,0-.7,0-.8-.27-.66-.87,1.49-6.4,2.99-12.79,4.44-19.19,1.72-7.61,3.39-15.23,5.1-22.85.82-3.68,1.65-7.37,2.52-11.04.19-.78.01-.85-.64-.6-1.53.57-3.05,1.14-4.68,1.41-.77.13-1.55.18-2.32.33-1.47.28-1.77-.06-1.83-1.79-.05-1.26-.21-2.5-.48-3.73-.15-.66.15-.98.8-1.17,2.98-.86,5.74-2.21,8.23-4.07,1.03-.77,1.99-1.64,2.99-2.47.07-.02.13-.05.2-.07Z"/>
  <path class="cls-3" d="m221.37,123.34c-.03-.19-.07-.37-.1-.56.38.13.35.32.1.56Z"/>
  <path class="cls-3" d="m212.89,122.76c-.07.02-.13.05-.2.07.04-.11.1-.15.2-.07Z"/>
  <path class="cls-3" d="m235.42,150.96s-.04.1-.06.15c0-.02-.02-.06-.02-.07.02-.03.06-.04.09-.07,0,0-.02-.01-.02-.01Z"/>
  <path class="cls-3" d="m261.31,151.04s-.07.04-.11.06c.02-.04.04-.07.06-.11,0,0,.05.05.05.05Z"/>
</svg>