<?xml version="1.0" encoding="utf-8"?>
<!-- Generator: Adobe Illustrator 27.5.0, SVG Export Plug-In . SVG Version: 6.00 Build 0)  -->
<svg version="1.1" id="Layer_1" xmlns="http://www.w3.org/2000/svg" xmlns:xlink="http://www.w3.org/1999/xlink" x="0px" y="0px"
	 viewBox="0 0 435.4 133.2" style="enable-background:new 0 0 435.4 133.2;" xml:space="preserve">
<style type="text/css">
	.st0{fill:#FFFFFF;}
	.st1{fill:#ABDBE3;}
	.st2{fill:#063970;}
</style>
<g id="Layer_1_00000135673255707683157150000007409229874315181482_">
	<path class="st0" d="M170.3,44.9c4.9,0,9.7,0,14.6,0c2,0,2.7,0.7,2.4,2.7c-1.2,7.6-1.4,15.5-3.5,22.9c-4,14.3-14.4,21.8-28.3,24.7
		c-10.7,2.3-21.2,1.4-30.3-5.5c-7.2-5.3-9.8-12.9-8.8-21.5c1.3-11.4,2.8-22.8,4.8-34.1c2.7-15.3,16-24.5,31.1-26.5
		c8.5-1.1,16.7-0.5,24.1,4.3c4.2,2.7,7.2,6.5,9.1,11.1c0.7,1.6,0.7,2.6-1.3,3.4c-5.1,2-10.1,4.2-15.1,6.5c-1.7,0.8-2.2,0.2-3.1-1.2
		c-2.6-4.4-7.3-6.1-12.6-5c-6.3,1.3-10.2,4.6-11,9.7c-1.4,9.1-2.7,18.3-3.8,27.4c-1,8.2,1.4,11.4,9.6,12.3c7.8,0.8,14.7-3,15.9-10.7
		c0.3-2,0-3.1-2.4-3c-2.9,0.1-5.7,0-8.6,0c-1.7,0-2.6-0.4-2.3-2.4c0.7-4.2,1.3-8.4,1.8-12.6c0.2-2,1.1-2.7,3.1-2.7
		C160.6,45,165.4,44.9,170.3,44.9L170.3,44.9L170.3,44.9z"/>
	<path class="st0" d="M332.5,95.1c-3.2-0.4-8,1.7-10.5-0.8c-2.2-2.3-1.9-7-2.6-10.7c-0.2-1.1-0.6-2.2-0.6-3.3c-0.1-2-1-2.8-3.1-2.8
		c-6.1,0.1-12.2,0.1-18.4,0c-2,0-2.9,0.9-3.6,2.5c-1.8,4.2-3.8,8.4-5.5,12.7c-0.8,2-2,2.4-4,2.4c-5.6-0.1-11.2-0.2-16.9,0
		c-3.1,0.1-3.2-0.8-2-3.3c9.2-18.7,18.4-37.3,27.5-56c4-8.3,8.1-16.5,12.1-24.9c0.9-1.9,1.9-2.5,4-2.5c4.6,0.2,9.2,0.2,13.9,0
		c2.4-0.1,3.5,0.6,4,3.1c5.8,26.9,11.6,53.8,17.5,80.7c0.5,2.2,0.2,3-2.2,2.9C339.2,95,336.2,95.1,332.5,95.1L332.5,95.1L332.5,95.1
		z M313.3,33.3c-0.4-0.1-0.8-0.1-1.2-0.2c-3,7.8-5.9,15.7-8.9,23.5c-0.7,1.9,0.6,1.8,1.7,1.8c2.7,0,5.5,0,8.2,0
		c1.9,0.1,2.7-0.6,2.5-2.6C314.8,48.3,314.1,40.8,313.3,33.3L313.3,33.3L313.3,33.3z"/>
	<path class="st0" d="M385.8,70.5c1.5-2.4,2-4.9,2.7-7.4c5.5-18.5,15.2-35.2,22.9-52.8c0.5-1.1,1-2,2.4-2c7.1,0,14.1,0,21.7,0
		c-0.7,1.6-1.2,2.7-1.7,3.8c-13.2,26.4-26.5,52.8-39.6,79.3c-1.4,2.8-3,3.8-6,3.6c-4.4-0.3-8.7-0.1-13.1,0c-2,0-2.8-0.6-3.3-2.6
		c-5.9-27-11.9-54.1-17.9-81.1c-0.5-2-0.5-3.2,2.3-3.1c5.9,0.2,11.7,0.1,17.6,0c1.8,0,2.9,0.2,3.3,2.5c2.3,13.3,5,26.5,7.1,39.8
		c0.9,5.3,0.7,10.7,1,16.1C385.3,67.8,385,69.1,385.8,70.5L385.8,70.5L385.8,70.5z"/>
	<path class="st0" d="M223.8,95.1c-8.1,0-16.2-0.2-24.4,0.1c-3.4,0.1-4.3-0.9-3.8-4.2c2.5-16.7,4.7-33.3,7.1-50
		c1.4-9.8,2.8-19.5,4.1-29.3c0.3-2.2,0.8-3.3,3.4-3.2c5.5,0.2,11,0.1,16.5,0c2,0,2.4,0.4,2.1,2.5c-2.8,19.2-5.5,38.5-8.2,57.8
		c-0.7,4.8-0.8,4.8,4,4.8c9.1,0,18.2,0.1,27.4-0.1c2.8-0.1,3.4,0.8,2.9,3.4c-0.9,5-1.6,10.1-2.1,15.2c-0.2,2.4-1.2,3.1-3.5,3
		C240.8,95,232.3,95.1,223.8,95.1L223.8,95.1L223.8,95.1z"/>
	<path class="st0" d="M48,125.9H14.3c-1,0-2,0-3-0.1c-0.5-0.1-0.9-0.5-0.7-1.1c0.1-0.3,0.5-0.6,0.7-0.7c0.9-0.1,1.7-0.1,2.6-0.1
		h68.2c0.4,0,0.8-0.1,1.1,0c0.8,0.1,2.1-0.4,2.2,0.8c0.1,1.6-1.4,1.1-2.2,1.1c-7.6,0-15.2,0-22.9,0L48,125.9
		C48,125.9,48,125.9,48,125.9z"/>
	<path class="st0" d="M387.2,125.9h-33.7c-0.9,0-1.8,0-2.6-0.1c-0.6,0-0.9-0.4-0.9-1c0-0.6,0.4-0.8,1-0.8c0.8,0,1.5,0,2.2,0h68.2
		c0.4,0,0.8-0.1,1.1,0c0.9,0.2,2.4-0.5,2.3,1c-0.1,1.4-1.5,0.9-2.5,0.9C410.7,125.9,398.9,125.8,387.2,125.9L387.2,125.9
		L387.2,125.9z"/>
	<path class="st0" d="M283.5,128.6c0-3.1,0-6.1,0-9.2c0-0.8-0.4-2.1,0.8-2.2c1.5-0.1,1,1.4,1,2.3c0.1,3.6,0,7.2,0,10.9
		c0,0.8,0.4,1.9-0.8,2.2c-1.3,0.4-1.7-0.7-2.2-1.6c-1.9-3.3-3.9-6.7-6.2-10.7c-0.9,3.8-0.2,6.9-0.5,10c-0.1,0.8,0.4,2-0.8,2.1
		c-1.3,0.1-1-1.2-1-2c0-3.7,0-7.5,0-11.2c0-0.8-0.3-1.9,0.8-2.2c1.3-0.4,1.7,0.7,2.2,1.6c1.9,3.3,3.9,6.7,5.8,10
		C282.9,128.6,283.2,128.6,283.5,128.6L283.5,128.6L283.5,128.6z"/>
	<path class="st0" d="M193,132.5c-1-3.7,0-7.7-0.7-12.4c-1.6,4.2-3,7.6-4.7,12.2c-1.7-4.4-3.1-7.8-4.4-11.2c-0.2,0-0.4,0.1-0.6,0.1
		c0,3.3,0,6.5,0,9.8c0,0.7,0.1,1.7-1,1.6c-0.8-0.1-0.7-0.9-0.7-1.5c0-4.1,0-8.2,0-12.3c0-0.8,0-1.5,1-1.7c1.1-0.2,1.5,0.6,1.8,1.4
		c1.2,3.2,2.4,6.5,3.9,10.6c1.4-3.8,2.5-6.8,3.6-9.8c0.4-1,0.5-2.4,2.1-2.2c1.4,0.2,0.9,1.6,0.9,2.5c0.1,4.3,0,8.6,0,13
		C193.8,132.5,193.4,132.5,193,132.5L193,132.5L193,132.5z"/>
	<path class="st0" d="M233.3,130.1c0-4.1-0.1-7,0-9.9c0-1-0.6-2.8,0.8-2.9c1.6-0.1,0.9,1.7,0.9,2.6c0.1,3.4,0.1,6.7,0,10.1
		c0,0.9,0.6,2.2-0.8,2.6c-1.5,0.4-1.9-1-2.4-1.9c-1.9-3.3-3.8-6.6-6.5-9.8c0,3.2,0,6.3,0,9.4c0,0.8,0.5,2-0.7,2.2
		c-1.3,0.2-1.1-1.1-1.1-1.9c0-3.9,0-7.7,0-11.6c0-0.7-0.1-1.6,0.8-1.9c1-0.3,1.6,0.4,2,1.2C228.6,121.9,230.7,125.5,233.3,130.1
		L233.3,130.1L233.3,130.1z"/>
	<path class="st0" d="M210.5,120.7c-2.3,3.8-2.6,7.5-5,11c-1.5-3.7-2.8-6.9-4.1-10.2c-0.2,0-0.5,0.1-0.7,0.1v10.8
		c-1.6,0.2-1.6-0.7-1.6-1.4c-0.1-4-0.1-8,0-12c0-0.8,0-1.9,1.1-2c1.2-0.2,1.4,0.8,1.7,1.6c1.2,3.1,2.3,6.3,3.6,9.9
		c2.1-3.4,2.7-6.9,4.1-10.1c0.3-0.7,0.5-1.4,1.5-1.4c0.7,0,1.2,0.4,1.2,1.2c0,4.8,0,9.6-0.6,14.3C210.2,129,211,125.2,210.5,120.7
		L210.5,120.7L210.5,120.7z"/>
	<path class="st0" d="M117.3,132.7c-3.1-0.2-3.1-2.7-4.2-4.1c-0.9-1.3-1.5-3.2-3.6-2.5c-1.8,0.6-0.7,2.3-1,3.5
		c-0.2,1,0.6,2.8-0.9,2.8c-1.9,0-1-1.9-1-2.9c-0.1-3.4,0-6.7-0.1-10.1c-0.1-1.9,0.7-2.8,2.6-2.6c1.5,0.1,3-0.1,4.5,0.2
		c3.4,0.6,5.1,5,2.4,7.1c-2.4,1.9-1.7,3.2-0.5,5.1C116.1,130.3,116.6,131.3,117.3,132.7L117.3,132.7L117.3,132.7z M108.5,121.4
		c0.1,1.4-0.7,3.5,2.1,3.2c2.2-0.2,4.5-0.3,4.7-3.2c0.1-2.6-1.9-3-4.1-3.2C108.7,118,108.2,119.3,108.5,121.4z"/>
	<path class="st0" d="M163.9,132.9c-3.1-0.5-3.2-2.9-4.4-4.4c-0.9-1.2-1.4-2.8-3.3-2.4c-2.1,0.5-1,2.2-1.2,3.4
		c-0.1,0.7,0,1.5-0.1,2.2c-0.1,0.6-0.4,0.9-1,0.9c-0.6,0-0.8-0.5-0.8-1c0-4.5,0-9,0-13.4c0-0.2,0.1-0.5,0.2-0.7
		c0.8-1.1,7-0.9,8.6,0.3c2.2,1.7,2.6,4.7,0.9,5.8c-3.7,2.6-1.4,4.5-0.2,6.7C162.9,131,163.3,131.7,163.9,132.9L163.9,132.9
		L163.9,132.9z M155,122.1c-0.3,1.4,0,2.8,2.4,2.5c2.2-0.3,4.5-0.7,4.4-3.5c-0.1-2.6-2.3-2.8-4.4-2.9C154.5,118,155,120,155,122.1
		L155,122.1L155,122.1z"/>
	<path class="st0" d="M316.1,125c0-5,2.5-8.2,6.6-8.3c4-0.1,6.9,3.2,7,8c0.1,5.1-2.7,8.6-6.9,8.6C318.8,133.2,316.2,130,316.1,125
		L316.1,125L316.1,125z M327.7,124.9c0-4-2-6.7-4.9-6.7c-2.9,0-5,2.9-5,6.7c0,4,2,6.6,5,6.6C325.9,131.5,327.7,129.1,327.7,124.9
		L327.7,124.9L327.7,124.9z"/>
	<path class="st0" d="M133.9,124.8c0,5-3,8.5-7,8.4c-4-0.1-6.7-3.5-6.8-8.3c0-4.8,2.8-8.2,6.8-8.2C131,116.6,133.9,120,133.9,124.8
		L133.9,124.8L133.9,124.8z M132,124.9c0-3.9-2.1-6.7-5-6.7c-2.9,0-4.9,2.8-4.9,6.8c0,4.1,1.9,6.6,5,6.6
		C130.1,131.5,131.9,129,132,124.9L132,124.9L132,124.9z"/>
	<path class="st0" d="M143.5,124.6c2.3,0.6,4.7-1.6,5.4,1.7c0.9,4.5-0.2,6.3-4,6.8c-3.1,0.4-5.6-0.7-7.2-3.6
		c-1.7-3.3-1.2-8.2,1.1-10.6c2.2-2.3,5-2.7,7.9-1.7c0.6,0.2,1.4,0.5,1.3,1.6c-0.3,0.1-0.7,0.3-1,0.2c-2.8-1.5-5.3-1.2-7.2,1.4
		c-1.8,2.5-1.6,6.8,0.2,9.2c1.5,2,3.6,2.2,5.7,1.6c1.8-0.5,1.3-2.1,1.4-3.5C147.3,125.4,144.8,126.5,143.5,124.6
		C143.5,124.6,143.5,124.6,143.5,124.6z"/>
	<path class="st0" d="M293.2,116.9c6.4,0.2,8.8,3.2,8.1,9.6c-0.5,4.8-4.3,7.1-9.6,6.3c-1.6-0.2-1.7-1.1-1.7-2.3
		c0-3.4,0.1-6.8,0-10.1C289.8,117.6,290.7,116.3,293.2,116.9L293.2,116.9L293.2,116.9z M291.8,124.8c0,1.1,0,2.2,0,3.4
		c0.1,3.2,1.2,4,4.1,3.1c2.8-0.9,3.7-3.2,3.8-5.8c0.1-2.7-0.5-5.3-3.3-6.6c-3.1-1.4-4.6-0.4-4.6,3
		C291.7,122.8,291.8,123.7,291.8,124.8L291.8,124.8L291.8,124.8z"/>
	<path class="st0" d="M250.1,118.9c-1.3,0.6-2.2-0.7-3.4-0.8c-3.2-0.2-5.7,2.4-5.9,6.4c-0.2,4,1.9,6.9,5.1,7
		c1.6,0.1,3.3,0.1,3.6-2.3c0.2-2.1-0.2-3.4-2.7-3.3c-0.2,0-0.5-0.4-1.5-1.1c2.5,0.3,4.6-1.6,5.6,1.1c1.3,3.6-0.1,6.3-3.1,7
		c-3.1,0.7-5.7-0.2-7.5-2.8c-2-2.9-1.7-8.5,0.5-10.9c2.1-2.4,4.8-3.1,7.8-2.1C249.4,117.4,250.3,117.6,250.1,118.9L250.1,118.9
		L250.1,118.9z"/>
	<path class="st0" d="M95.8,116.8c2.6,0.1,4.8,0,6.3,1.8c2.3,2.9,0.4,7.1-3.8,7.5c-3.2,0.3-4.8,1.2-4.2,4.6c0.1,0.7,0.1,1.7-0.8,1.8
		c-1.5,0.1-0.9-1.2-1-1.9c-0.1-3.2,0.2-6.5-0.1-9.7C91.9,117.8,92.8,116.2,95.8,116.8L95.8,116.8L95.8,116.8z M96.6,118.3
		c-2.8-0.5-2.5,1.6-2.4,3.5c0.1,1.5-0.6,3.6,2.1,3.3c2.2-0.2,4.8-0.2,4.9-3.4C101.2,118.8,99.1,118.3,96.6,118.3L96.6,118.3
		L96.6,118.3z"/>
	<path class="st0" d="M165.3,132.6c1.7-5.1,3.2-9.9,5.1-14.6c0.7-1.7,2.2-1.6,2.9,0.3c1.5,4.2,2.9,8.5,4.3,12.7
		c0.2,0.5,0.7,1.3-0.1,1.6c-0.9,0.4-1.3-0.3-1.5-1.1c-0.6-1.9-1-3.7-3.8-3.6c-2.4,0.1-4.1,0.4-4.5,3.2
		C167.5,131.7,167.2,132.6,165.3,132.6L165.3,132.6L165.3,132.6z M172.2,119.6c-0.3,0-0.6,0-0.9,0c-0.4,1.4-0.9,2.7-1.2,4.1
		c-0.2,0.8-1.3,2,0,2.6c0.9,0.4,2.3,0.4,3.2,0c1.3-0.5,0.4-1.7,0.2-2.6C173,122.4,172.6,121,172.2,119.6L172.2,119.6L172.2,119.6z"
		/>
	<path class="st0" d="M258.3,132.6c1.7-5.1,3.3-9.9,5-14.7c0.2-0.7,0.7-0.9,1.4-1c1.2-0.1,1.4,0.8,1.7,1.6c1.4,4.1,2.8,8.2,4.2,12.4
		c0.2,0.5,0.7,1.2-0.1,1.6c-0.9,0.4-1.3-0.3-1.6-1.1c-0.6-1.9-0.9-3.8-3.8-3.6c-2.4,0.1-4.2,0.3-4.5,3.1
		C260.5,131.7,260.2,132.6,258.3,132.6L258.3,132.6L258.3,132.6z M265,119c-1.5,1.7-1.6,3.3-2,4.8c-0.2,0.8-1.3,2,0.1,2.5
		c1,0.4,2.3,0.3,3.2-0.1c1.3-0.6,0.4-1.7,0.1-2.6C266,122.3,265.5,120.9,265,119L265,119L265,119z"/>
	<path class="st0" d="M331.1,117.9c4.3-1.1,8-1.1,12-0.7c-0.3,0.7-0.4,1.1-0.5,1c-4.5-0.5-4.8,2.2-4.6,5.7c0.1,2.9,0.5,5.9-0.6,9.4
		c-1.7-3.2-0.8-6-0.9-8.7C336.3,121.2,337.9,116.8,331.1,117.9L331.1,117.9L331.1,117.9z"/>
	<path class="st0" d="M312.2,125.2c0,2,0,4,0,5.9c0,0.7-0.1,1.6-1.1,1.5c-0.9-0.1-0.7-0.9-0.7-1.4c0-4.2,0-8.4,0-12.6
		c0-0.6,0-1.4,0.8-1.3c0.8,0,1,0.7,1,1.3C312.2,120.7,312.2,122.9,312.2,125.2L312.2,125.2L312.2,125.2z"/>
	<path class="st0" d="M217.6,132.5v-15.2c0.3,0,0.6,0,0.8,0v15.2C218.2,132.5,217.9,132.5,217.6,132.5L217.6,132.5z"/>
</g>
<g id="Layer_3">
	<path class="st1" d="M52.7,15c-10.2,0-20.5,0-30.7,0c-6.3,0-12.1,1.3-17.3,4.9c-0.9,0.6-1.8,1.5-3,0.8c-1.2-0.7-0.9-1.9-0.9-3
		C1,9.3,10.1,0.4,19.5,0.3C39.6-0.1,59.7,0.1,79.8,0c7.4,0,14.7,0,22.1,0.1c1.4,0,3.2-0.5,4,1.2c0.9,1.8-0.5,3.1-1.5,4.3
		c-4.7,6.2-11.1,9.2-18.7,9.3C74.7,15.1,63.7,15,52.7,15z"/>
</g>
<g id="Layer_2_00000173119729242907685810000016515876077769070505_">
	<path class="st2" d="M54,21.9c10.4,0,20.7,0,31.1,0c6.7,0,12.9-1.3,18.2-5.6c1-0.8,2.1-1.7,3.3-0.9c1.3,0.9,0.6,2.3,0.4,3.4
		c-2.2,11.2-12.8,18.4-24.9,16.9c-1.9-0.2-3.7-0.6-5.6-0.2c-3.7,0.7-6,3.2-5.3,6.9c1.7,8.7,0.7,17.4,0.8,26.2
		c0.1,9.4,0.1,18.7,0.1,28.1c0,1.7,0.3,3.6-1.7,4.6c-2,0.9-3.3-0.4-4.7-1.4c-6.3-4.6-8.5-11.2-8.6-18.6c-0.1-12.4,0-24.7,0-37.1
		c0-2.8-0.5-5.2-3-6.9c-2.2-1.5-4.1-0.6-4.1,1.9c0,15.6,0.1,31.2,0.3,46.8c0.1,5.1,2,9.7,5.3,13.7c0.7,0.8,1.6,1.7,0.8,3
		c-0.7,1-1.8,0.8-2.8,0.7c-5.7-0.4-10.2-3-13.5-7.7c-3.3-4.7-4.8-10.2-4.9-15.8c-0.2-10.9-0.1-21.7-0.1-32.6
		c0-9.5-1.9-11.3-11.5-11.3C16.7,36,10,37.4,4,41.7c-0.9,0.6-1.8,1.6-3,1c-1.5-0.8-0.9-2.2-0.8-3.4C1.1,30,9.9,22.4,20.3,22
		c5.6-0.2,11.2-0.2,16.9-0.2C42.8,21.8,48.4,21.9,54,21.9L54,21.9L54,21.9z"/>
</g>
</svg>
