<?xml version="1.0" encoding="utf-8"?>
<!-- Generator: Adobe Illustrator 27.5.0, SVG Export Plug-In . SVG Version: 6.00 Build 0)  -->
<svg version="1.1" id="Layer_1" xmlns="http://www.w3.org/2000/svg" xmlns:xlink="http://www.w3.org/1999/xlink" x="0px" y="0px"
	 viewBox="0 0 16 16" style="enable-background:new 0 0 16 16;" xml:space="preserve">
<style type="text/css">
	.st0{fill:#FFFFFF;}
</style>
<g>
	<path class="st0" d="M15.51,16c-2.33,0-4.66,0-6.99,0c0-1,0-1.99,0-3c0.69,0,1.36,0,2.02,0c0-1.67,0-3.32,0-4.98
		c-1.68,0-3.34,0-5.01,0c0,1.67,0,3.32,0,4.99c0.66,0,1.32,0,1.99,0c0,1,0,2,0,2.99c-2.33,0-4.66,0-6.99,0c0-1,0-1.99,0-3
		c0.68,0,1.34,0,1.99,0c0-1.67,0-3.32,0-5C1.85,8,1.2,8,0.55,8c0-1,0-1.99,0-2.99c0.66,0,1.32,0,1.99,0c0-0.13,0-0.25,0-0.37
		C2.53,3.41,2.92,2.31,3.79,1.41c0.78-0.8,1.73-1.27,2.85-1.35c0.6-0.04,1.19-0.02,1.79-0.03c0.02,0,0.05,0.01,0.07,0.01
		c0,0.99,0,1.98,0,2.97c-0.07,0-0.12,0-0.18,0c-0.43,0-0.86-0.01-1.29,0c-1.05,0.03-1.68,0.9-1.48,2.01c2.65,0,5.3,0,7.96,0
		c0,2.67,0,5.32,0,7.98c0.67,0,1.32,0,2,0C15.51,14.02,15.51,15.01,15.51,16z"/>
	<path class="st0" d="M13.5,1.52c0.01,0.81-0.66,1.48-1.48,1.5c-0.81,0.01-1.5-0.68-1.5-1.49c0-0.81,0.67-1.49,1.49-1.49
		C12.82,0.03,13.49,0.7,13.5,1.52z"/>
</g>
</svg>
