<?xml version="1.0" encoding="UTF-8"?>
<svg xmlns="http://www.w3.org/2000/svg" viewBox="0 0 435.42 133.22">
  <defs>
    <style>
      .cls-1 {
        fill: #abdbe3;
      }

      .cls-2 {
        fill: #063970;
      }
    </style>
  </defs>
  <g id="Layer_1" data-name="Layer 1">
    <path d="m170.3,44.93c4.87,0,9.74.05,14.61-.03,1.97-.03,2.72.68,2.41,2.65-1.2,7.63-1.45,15.45-3.53,22.9-3.99,14.3-14.37,21.76-28.26,24.72-10.74,2.29-21.18,1.36-30.34-5.47-7.17-5.34-9.79-12.89-8.83-21.47,1.28-11.4,2.82-22.79,4.84-34.07,2.73-15.27,16.01-24.46,31.14-26.48,8.48-1.13,16.69-.51,24.15,4.3,4.24,2.73,7.18,6.48,9.07,11.13.66,1.62.71,2.63-1.28,3.42-5.1,2.02-10.12,4.23-15.11,6.5-1.68.76-2.23.18-3.09-1.25-2.64-4.41-7.28-6.15-12.63-5.05-6.26,1.29-10.24,4.65-11.01,9.73-1.39,9.12-2.7,18.26-3.83,27.42-1.01,8.16,1.39,11.45,9.56,12.33,7.76.84,14.74-3.02,15.93-10.71.3-1.98-.03-3.1-2.39-3-2.87.13-5.74-.02-8.62.03-1.69.03-2.58-.44-2.27-2.37.66-4.19,1.27-8.39,1.77-12.6.23-1.98,1.07-2.74,3.11-2.69,4.87.12,9.74.04,14.61.05h-.01Z"/>
    <path d="m332.55,95.06c-3.16-.41-8.04,1.67-10.49-.85-2.2-2.27-1.88-7-2.65-10.65-.23-1.1-.57-2.19-.63-3.3-.11-2.03-1.03-2.8-3.08-2.77-6.11.09-12.23.1-18.35,0-1.98-.03-2.88.86-3.58,2.54-1.79,4.25-3.81,8.4-5.53,12.67-.8,2-2.04,2.45-4.02,2.41-5.61-.11-11.24-.18-16.85.01-3.14.11-3.24-.8-1.99-3.32,9.23-18.65,18.35-37.35,27.51-56.03,4.05-8.28,8.15-16.54,12.1-24.87.87-1.85,1.9-2.54,3.95-2.47,4.61.16,9.24.18,13.85,0,2.41-.09,3.46.64,3.99,3.09,5.76,26.92,11.62,53.82,17.54,80.7.48,2.18.17,2.98-2.16,2.88-2.99-.13-5.99-.03-9.62-.03h0Zm-19.27-61.77c-.39-.07-.78-.14-1.17-.21-2.96,7.83-5.9,15.66-8.87,23.48-.71,1.86.56,1.81,1.7,1.82,2.74.03,5.47-.05,8.21.03,1.93.06,2.7-.64,2.48-2.62-.82-7.5-1.57-15-2.35-22.51h0Z"/>
    <path d="m385.8,70.51c1.54-2.39,2.01-4.95,2.73-7.37,5.5-18.52,15.2-35.21,22.85-52.8.47-1.08.95-1.97,2.37-1.96,7.07.03,14.14.02,21.67.02-.72,1.58-1.18,2.7-1.72,3.78-13.22,26.44-26.48,52.85-39.6,79.33-1.36,2.75-2.95,3.81-5.99,3.62-4.36-.26-8.74-.14-13.11-.04-1.95.04-2.83-.57-3.27-2.61-5.89-27.04-11.87-54.06-17.87-81.08-.45-2.04-.48-3.19,2.27-3.09,5.86.21,11.74.1,17.61.04,1.82-.02,2.9.24,3.29,2.47,2.3,13.27,4.96,26.48,7.12,39.77.86,5.27.7,10.7,1.05,16.06.08,1.18-.25,2.43.6,3.86h0Z"/>
    <path d="m223.84,95.06c-8.12,0-16.24-.17-24.35.08-3.44.11-4.29-.88-3.8-4.22,2.46-16.66,4.74-33.34,7.09-50.01,1.37-9.76,2.82-19.5,4.07-29.28.29-2.24.8-3.31,3.35-3.21,5.49.2,10.99.12,16.48.03,1.98-.03,2.45.44,2.14,2.54-2.82,19.25-5.48,38.52-8.24,57.78-.69,4.81-.79,4.81,4.02,4.81,9.12,0,18.24.11,27.35-.06,2.76-.05,3.38.75,2.93,3.37-.86,5.04-1.57,10.11-2.05,15.2-.23,2.44-1.18,3.06-3.49,3.03-8.49-.12-16.99-.05-25.48-.05h-.02Z"/>
    <path d="m47.99,125.86H14.26c-1,0-2,0-2.99-.12-.52-.06-.88-.52-.7-1.07.09-.28.46-.62.74-.65.86-.1,1.74-.09,2.62-.09h68.21c.37,0,.76-.05,1.12.01.78.13,2.07-.43,2.17.79.13,1.62-1.36,1.11-2.21,1.12-7.62.04-15.24.03-22.86.03h-12.37v-.02Z"/>
    <path d="m387.19,125.86h-33.73c-.87,0-1.75-.01-2.62-.07-.57-.04-.92-.44-.89-.98.02-.56.44-.84,1.01-.85.75-.01,1.5-.04,2.25-.04h68.2c.37,0,.76-.06,1.12.01.86.19,2.4-.54,2.33.98-.06,1.37-1.55.92-2.45.92-11.74.03-23.48.02-35.23.02h.01Z"/>
    <path d="m283.49,128.59c0-3.05-.03-6.1.02-9.15.01-.78-.41-2.12.75-2.17,1.54-.06,1,1.44,1.02,2.29.07,3.62.05,7.23.01,10.85,0,.8.36,1.9-.81,2.21-1.27.35-1.71-.7-2.21-1.57-1.92-3.33-3.86-6.67-6.16-10.65-.93,3.76-.23,6.92-.49,10.01-.07.77.42,2.04-.82,2.11-1.32.08-.97-1.21-.98-1.98-.05-3.74-.04-7.48,0-11.22,0-.81-.31-1.9.82-2.23,1.26-.37,1.72.69,2.22,1.55,1.93,3.34,3.86,6.68,5.79,10.02.28-.03.56-.05.84-.08h0Z"/>
    <path d="m193.03,132.53c-.99-3.74.02-7.67-.72-12.43-1.65,4.24-2.97,7.63-4.72,12.15-1.73-4.38-3.08-7.8-4.43-11.22-.18.03-.36.06-.55.1,0,3.27.02,6.54,0,9.81,0,.69.12,1.67-1,1.59-.82-.06-.74-.88-.74-1.46-.02-4.11-.02-8.22,0-12.33,0-.75.03-1.54,1.03-1.69,1.11-.17,1.5.55,1.82,1.44,1.18,3.24,2.4,6.46,3.93,10.55,1.4-3.85,2.47-6.82,3.56-9.79.37-1.01.53-2.44,2.05-2.17,1.37.24.93,1.58.94,2.48.05,4.32.02,8.64.02,12.96-.39,0-.78,0-1.16,0h-.02Z"/>
    <path d="m233.34,130.12c0-4.08-.05-7.02.03-9.94.03-1.02-.59-2.78.82-2.86,1.58-.09.91,1.69.94,2.64.09,3.37.08,6.74,0,10.11-.02.88.6,2.18-.77,2.56-1.46.4-1.86-.96-2.41-1.89-1.94-3.3-3.84-6.63-6.47-9.83,0,3.15.04,6.3-.03,9.44-.02.76.54,2.01-.69,2.16-1.31.16-1.06-1.13-1.07-1.91-.04-3.87-.03-7.74,0-11.61,0-.73-.1-1.61.81-1.9,1.04-.33,1.57.41,2.03,1.21,2.08,3.62,4.17,7.23,6.82,11.81h0Z"/>
    <path d="m210.47,120.7c-2.27,3.8-2.59,7.52-4.98,11-1.48-3.7-2.77-6.95-4.06-10.2-.24.04-.47.07-.71.11v10.8c-1.58.21-1.63-.66-1.64-1.36-.05-3.99-.05-7.98-.03-11.96,0-.85-.04-1.86,1.14-2.04,1.16-.18,1.41.78,1.71,1.59,1.16,3.14,2.3,6.29,3.63,9.93,2.1-3.44,2.73-6.94,4.1-10.12.29-.68.48-1.45,1.46-1.4.74.03,1.18.45,1.18,1.15.02,4.78,0,9.55-.61,14.35-1.44-3.57-.64-7.33-1.19-11.84h0Z"/>
    <path d="m117.32,132.74c-3.06-.24-3.11-2.68-4.18-4.11-.95-1.27-1.52-3.15-3.61-2.47-1.81.59-.73,2.34-1.04,3.54-.25.98.63,2.77-.87,2.79-1.94.02-.98-1.91-1.02-2.93-.13-3.36.04-6.72-.08-10.08-.07-1.94.65-2.75,2.58-2.61,1.49.11,3.02-.06,4.47.21,3.4.63,5.05,4.99,2.41,7.08-2.42,1.92-1.68,3.25-.51,5.11.63.99,1.11,2.07,1.85,3.48h0Zm-8.8-11.33c.12,1.42-.68,3.47,2.11,3.23,2.18-.19,4.53-.35,4.67-3.15.13-2.63-1.93-3.01-4.09-3.22-2.55-.24-2.98,1.07-2.69,3.14Z"/>
    <path d="m163.85,132.88c-3.15-.54-3.24-2.94-4.35-4.4-.89-1.16-1.36-2.83-3.31-2.38-2.07.47-.96,2.22-1.21,3.4-.15.72-.04,1.49-.1,2.23-.05.55-.4.9-.97.88-.61-.03-.82-.48-.82-1,0-4.48,0-8.96.02-13.43,0-.23.1-.49.24-.68.81-1.07,7.02-.88,8.56.32,2.16,1.67,2.59,4.68.9,5.85-3.7,2.56-1.38,4.46-.2,6.69.34.64.65,1.3,1.25,2.53h0Zm-8.88-10.74c-.26,1.4,0,2.77,2.43,2.49,2.22-.26,4.5-.65,4.38-3.46-.11-2.61-2.3-2.75-4.4-2.91-2.9-.22-2.4,1.73-2.4,3.88h-.01Z"/>
    <path d="m316.12,124.96c-.05-4.97,2.54-8.24,6.6-8.34,4.04-.09,6.93,3.23,6.99,8.02.06,5.08-2.73,8.56-6.86,8.55-4.05,0-6.68-3.22-6.73-8.24h0Zm11.62-.07c.03-3.98-1.96-6.72-4.87-6.73-2.86,0-5.04,2.91-5.02,6.71.03,3.96,2.04,6.63,5,6.64,3.06,0,4.86-2.43,4.89-6.62h0Z"/>
    <path d="m133.92,124.76c.03,4.95-2.96,8.53-7.04,8.44-3.97-.09-6.73-3.5-6.75-8.35-.02-4.76,2.84-8.2,6.84-8.23,4-.03,6.92,3.4,6.95,8.13h0Zm-1.96.1c.02-3.92-2.06-6.74-4.97-6.72-2.9.02-4.95,2.83-4.92,6.77.03,4.13,1.91,6.63,4.96,6.61,3.05,0,4.9-2.53,4.92-6.66h0Z"/>
    <path d="m143.5,124.58c2.3.64,4.71-1.61,5.4,1.69.94,4.51-.19,6.34-3.99,6.79-3.14.37-5.65-.72-7.16-3.62-1.69-3.26-1.2-8.23,1.1-10.56,2.25-2.27,4.96-2.72,7.92-1.65.64.23,1.45.51,1.27,1.62-.3.07-.73.33-.96.21-2.83-1.49-5.31-1.23-7.25,1.45-1.79,2.47-1.63,6.77.22,9.17,1.52,1.97,3.57,2.19,5.73,1.58,1.8-.51,1.27-2.15,1.38-3.47.19-2.36-2.31-1.25-3.68-3.21h.02Z"/>
    <path d="m293.24,116.87c6.4.19,8.84,3.21,8.1,9.61-.55,4.78-4.29,7.14-9.62,6.32-1.64-.25-1.66-1.15-1.66-2.32,0-3.37.15-6.75-.05-10.11-.17-2.77.66-4.07,3.23-3.51h0Zm-1.48,7.88c0,1.12-.02,2.24,0,3.36.07,3.19,1.16,4.04,4.07,3.06,2.77-.93,3.7-3.23,3.83-5.85.13-2.72-.48-5.31-3.26-6.59-3.07-1.42-4.58-.38-4.64,3.03-.02,1,0,1.99,0,2.99h0Z"/>
    <path d="m250.13,118.87c-1.33.63-2.25-.67-3.44-.75-3.21-.19-5.68,2.41-5.89,6.38-.21,3.97,1.89,6.9,5.1,6.99,1.65.05,3.34.05,3.6-2.26.23-2.06-.23-3.45-2.7-3.32-.24.01-.51-.37-1.48-1.11,2.47.26,4.62-1.56,5.61,1.09,1.34,3.57-.06,6.33-3.09,7.01-3.12.71-5.7-.16-7.53-2.81-1.98-2.87-1.74-8.47.48-10.94,2.12-2.36,4.77-3.05,7.81-2.05.79.26,1.72.5,1.53,1.77h0Z"/>
    <path d="m95.77,116.85c2.62.05,4.84.02,6.34,1.83,2.35,2.86.38,7.06-3.8,7.48-3.17.31-4.81,1.2-4.22,4.63.12.68.13,1.7-.85,1.77-1.5.11-.95-1.2-.96-1.89-.07-3.24.17-6.49-.09-9.71-.26-3.21.63-4.8,3.59-4.11h-.01Zm.79,1.45c-2.75-.52-2.5,1.57-2.41,3.46.07,1.49-.55,3.58,2.14,3.27,2.16-.25,4.77-.24,4.86-3.37.08-2.86-2-3.33-4.58-3.37h0Z"/>
    <path d="m165.3,132.59c1.74-5.1,3.22-9.92,5.06-14.6.67-1.69,2.21-1.59,2.88.28,1.52,4.21,2.92,8.46,4.33,12.71.17.52.67,1.27-.11,1.62-.93.41-1.3-.34-1.54-1.09-.6-1.91-.98-3.71-3.84-3.56-2.42.13-4.11.42-4.49,3.17-.09.62-.35,1.51-2.29,1.48h0Zm6.85-13.01c-.31,0-.62.02-.93.03-.42,1.38-.91,2.74-1.24,4.13-.2.85-1.32,1.99.02,2.57.93.4,2.28.4,3.23.03,1.34-.52.42-1.67.17-2.55-.39-1.41-.84-2.81-1.26-4.21h0Z"/>
    <path d="m258.29,132.63c1.73-5.12,3.34-9.89,4.96-14.66.23-.66.74-.95,1.42-1.01,1.18-.1,1.44.81,1.72,1.62,1.41,4.12,2.8,8.25,4.16,12.38.17.51.72,1.24-.07,1.62-.93.44-1.29-.27-1.56-1.05-.64-1.85-.94-3.77-3.83-3.6-2.37.14-4.16.31-4.52,3.12-.08.64-.34,1.51-2.28,1.57h0Zm6.69-13.62c-1.49,1.66-1.61,3.3-2.02,4.79-.22.81-1.33,1.98.09,2.52.95.36,2.29.35,3.21-.05,1.27-.55.35-1.7.11-2.57-.39-1.42-.83-2.82-1.39-4.69h0Z"/>
    <path d="m331.15,117.86c4.28-1.14,8.05-1.14,12.02-.74-.29.67-.39,1.05-.46,1.04-4.5-.48-4.78,2.19-4.61,5.68.14,2.88.55,5.86-.64,9.38-1.66-3.21-.79-6.02-.94-8.69-.2-3.33,1.34-7.77-5.36-6.68h-.01Z"/>
    <path d="m312.24,125.15c0,1.98.02,3.96,0,5.94-.01.74-.08,1.59-1.14,1.48-.88-.09-.68-.9-.68-1.45-.02-4.21-.02-8.41,0-12.62,0-.58-.04-1.36.82-1.34.75.01.97.67.98,1.32.02,2.23,0,4.45,0,6.68h.02Z"/>
    <path d="m217.61,132.51v-15.24c.27,0,.55-.02.82-.02v15.25c-.27,0-.55,0-.82,0Z"/>
  </g>
  <g id="Layer_3" data-name="Layer 3">
    <path class="cls-1" d="m52.73,14.96c-10.24,0-20.48.03-30.71,0-6.26-.02-12.12,1.3-17.32,4.94-.9.63-1.79,1.5-3.03.76-1.21-.73-.91-1.94-.88-3.03C1,9.31,10.15.4,19.46.26,39.56-.05,59.66.06,79.76.01c7.37-.02,14.73,0,22.1.05,1.42,0,3.16-.49,4.01,1.22.92,1.84-.54,3.06-1.47,4.31-4.66,6.25-11.07,9.21-18.71,9.33-10.98.17-21.97.04-32.96.04Z"/>
  </g>
  <g id="Layer_2" data-name="Layer 2">
    <path class="cls-2" d="m54.02,21.85c10.37,0,20.74-.01,31.1,0,6.65,0,12.89-1.3,18.23-5.58.98-.79,2.06-1.74,3.34-.86,1.3.89.61,2.27.39,3.45-2.15,11.24-12.75,18.44-24.95,16.9-1.86-.23-3.71-.59-5.58-.23-3.73.72-5.99,3.24-5.26,6.92,1.72,8.7.66,17.43.76,26.15.11,9.37.08,18.73.09,28.1,0,1.72.31,3.62-1.68,4.59-1.96.95-3.32-.42-4.7-1.44-6.29-4.62-8.54-11.17-8.59-18.63-.09-12.36-.05-24.73-.05-37.09,0-2.75-.54-5.25-2.99-6.88-2.19-1.45-4.09-.63-4.09,1.94.03,15.61.06,31.22.33,46.83.09,5.09,1.98,9.74,5.27,13.74.7.85,1.64,1.73.85,2.97-.65,1.02-1.8.75-2.75.68-5.71-.41-10.21-3.03-13.49-7.69-3.33-4.74-4.79-10.15-4.87-15.85-.15-10.86-.08-21.73-.1-32.6,0-9.46-1.86-11.28-11.46-11.28-7.15,0-13.87,1.45-19.8,5.69-.89.64-1.8,1.59-3.02.97-1.47-.75-.91-2.22-.8-3.36.86-9.25,9.74-16.9,20.1-17.25,5.62-.19,11.24-.16,16.86-.18,5.62-.03,11.24,0,16.86,0h0Z"/>
  </g>
</svg>