<?xml version="1.0" encoding="utf-8"?>
<!-- Generator: Adobe Illustrator 27.5.0, SVG Export Plug-In . SVG Version: 6.00 Build 0)  -->
<svg version="1.1" id="Layer_1" xmlns="http://www.w3.org/2000/svg" xmlns:xlink="http://www.w3.org/1999/xlink" x="0px" y="0px"
	 viewBox="0 0 16 16" style="enable-background:new 0 0 16 16;" xml:space="preserve">
<style type="text/css">
	.st0{fill:#FFFFFF;}
</style>
<path class="st0" d="M16,6.94c-0.03,0.04-0.03,0.09-0.03,0.14c-0.04,0.82-0.24,1.56-0.55,2.25c-0.43,0.95-1.03,1.6-1.77,2.01
	c-0.39,0.21-0.79,0.31-1.21,0.32c-0.69,0.02-1.34-0.2-1.97-0.61c-0.16-0.1-0.31-0.22-0.45-0.35c-0.08-0.07-0.1-0.06-0.12,0.07
	c-0.15,0.99-0.3,1.99-0.45,2.98c-0.08,0.56-0.17,1.12-0.26,1.69c-0.02,0.13-0.04,0.27-0.05,0.4C9.12,15.96,9.07,15.98,9,15.98
	c-0.46,0-0.92,0-1.38,0c-0.09,0-0.18,0-0.27,0.01c-0.11,0.02-0.12-0.01-0.1-0.16c0.15-0.88,0.28-1.76,0.41-2.64
	c0.17-1.15,0.35-2.29,0.52-3.44C8.23,9.4,8.27,9.04,8.34,8.69C8.36,8.61,8.34,8.56,8.31,8.5C8.04,8.02,7.8,7.51,7.58,6.99
	C7.4,6.57,7.24,6.14,7.1,5.7C7.09,5.68,7.08,5.65,7.06,5.64C7.03,5.68,7.04,5.74,7.04,5.78c0,0.27,0,0.53,0,0.8
	c0.01,1.16-0.24,2.2-0.74,3.12c-0.47,0.88-1.09,1.47-1.84,1.76C3.3,11.92,2.24,11.6,1.3,10.54C0.6,9.74,0.17,8.68,0.05,7.4
	c0-0.04-0.01-0.07-0.02-0.12C0.01,7.33,0.02,7.38,0,7.42V0c0.57,0,1.14,0,1.71,0c0.12,0,0.12,0.01,0.13,0.18c0,0.88,0,1.76,0,2.64
	c0,1.32-0.01,2.64,0,3.97c0,0.62,0.19,1.14,0.49,1.57c0.39,0.54,0.86,0.76,1.4,0.67c0.49-0.08,0.87-0.42,1.16-0.98
	c0.22-0.43,0.32-0.92,0.32-1.45c0-1.84,0-3.67,0-5.51c0-0.32,0-0.63,0-0.95C5.21,0.05,5.24,0,5.32,0c0.55,0,1.09,0,1.64,0
	c0.06,0,0.1,0.04,0.12,0.12c0.02,0.12,0.05,0.23,0.08,0.35c0.32,1.38,0.71,2.71,1.22,3.97C8.5,4.76,8.64,5.08,8.77,5.4
	C8.79,5.44,8.8,5.49,8.84,5.48c0.03-0.01,0.03-0.06,0.03-0.09c0.13-0.63,0.34-1.21,0.6-1.75c0.22-0.47,0.48-0.89,0.81-1.22
	c0.49-0.5,1.04-0.84,1.65-0.94c0.39-0.06,0.77-0.06,1.15,0.05c0.94,0.28,1.69,0.95,2.25,2.05c0.28,0.55,0.48,1.15,0.58,1.81
	c0.03,0.19,0.04,0.38,0.07,0.6c0.02-0.1,0-0.18,0.03-0.25L16,6.94L16,6.94z M12.53,9.07c0.34-0.01,0.79-0.24,1.13-0.77
	c0.39-0.58,0.56-1.28,0.49-2.08c-0.08-0.95-0.47-1.58-1.05-1.98c-0.28-0.19-0.58-0.23-0.89-0.21c-0.37,0.02-0.67,0.24-0.94,0.57
	c-0.41,0.52-0.62,1.19-0.74,1.92c-0.07,0.41-0.11,0.83-0.18,1.24c-0.02,0.11,0,0.19,0.06,0.25c0.11,0.11,0.23,0.23,0.34,0.33
	C11.24,8.78,11.77,9.06,12.53,9.07L12.53,9.07z"/>
</svg>
